<?xml version="1.0" standalone="no"?>
<!DOCTYPE svg PUBLIC "-//W3C//DTD SVG 20010904//EN"
 "http://www.w3.org/TR/2001/REC-SVG-20010904/DTD/svg10.dtd">
<svg version="1.0" xmlns="http://www.w3.org/2000/svg"
 width="512.000000pt" height="512.000000pt" viewBox="0 0 512.000000 512.000000"
 preserveAspectRatio="xMidYMid meet">
<metadata>
Created by potrace 1.11, written by Peter Selinger 2001-2013
</metadata>
<g transform="translate(0.000000,512.000000) scale(0.100000,-0.100000)"
fill="#000000" stroke="none">
<path d="M0 2560 l0 -2560 2560 0 2560 0 0 2560 0 2560 -2560 0 -2560 0 0
-2560z m4710 2056 c0 -6 -23 -94 -51 -196 -27 -102 -78 -287 -112 -412 l-62
-228 -186 0 -187 0 35 133 c19 72 47 178 62 235 l28 102 -1218 0 c-1151 0
-1218 -1 -1223 -17 -7 -23 -882 -3298 -891 -3335 l-7 -28 784 0 c432 0 980 3
1220 7 l435 6 53 201 c29 111 57 216 62 234 l9 32 184 0 c122 0 185 -4 185
-10 0 -10 -187 -716 -212 -802 l-11 -38 -1590 0 -1589 0 6 32 c6 29 1082 4059
1090 4083 5 15 3186 16 3186 1z m-300 -1123 c0 -5 -22 -89 -49 -188 l-48 -180
-750 3 c-431 2 -753 0 -756 -5 -3 -5 -72 -254 -152 -552 -81 -299 -149 -550
-152 -557 -4 -12 83 -14 563 -12 l569 3 47 170 c25 94 47 178 47 187 1 16 -21
18 -277 20 l-278 3 41 155 c23 85 45 167 49 183 l6 27 471 0 c443 0 470 -1
465 -17 -4 -15 -252 -936 -285 -1060 l-12 -43 -798 0 c-869 0 -863 0 -931 57
-17 14 -40 44 -52 66 -17 35 -20 53 -15 131 4 77 29 181 165 681 88 325 170
616 182 647 38 102 116 189 214 240 87 45 117 46 949 47 433 1 787 -2 787 -6z
m-2422 -925 c-22 -84 -41 -154 -42 -156 -2 -1 -86 -1 -188 0 l-185 3 41 153
40 152 187 0 188 0 -41 -152z"/>
</g>
</svg>
